<?xml version="1.0" encoding="utf-8"?>
<!-- Generator: Adobe Illustrator 16.0.0, SVG Export Plug-In . SVG Version: 6.00 Build 0)  -->
<!DOCTYPE svg PUBLIC "-//W3C//DTD SVG 1.1//EN" "http://www.w3.org/Graphics/SVG/1.1/DTD/svg11.dtd">
<svg version="1.1" id="Layer_1" xmlns="http://www.w3.org/2000/svg" xmlns:xlink="http://www.w3.org/1999/xlink" x="0px" y="0px"
	 width="128.61px" height="127.604px" viewBox="0 0 128.61 127.604" enable-background="new 0 0 128.61 127.604"
	 xml:space="preserve">
<g>
	<path fill="#FFFFFF" d="M80.703,48.552c0-5.8-2.3-10.101-6.4-12.301c-2.101-1.1-4.601-1.7-10.001-1.7H50.101v28.302h16.701
		C75.303,62.853,80.703,57.352,80.703,48.552z"/>
	<path fill="#FFFFFF" d="M63.864,1.875C29.698,1.875,2,29.573,2,63.739c0,34.167,27.698,61.865,61.864,61.865
		c34.167,0,61.864-27.698,61.864-61.865C125.729,29.573,98.031,1.875,63.864,1.875z M83.703,98.655L67.802,69.053H50.101v29.602
		h-6.9V28.351h20.801c7.2,0,10.4,0.7,13.201,1.9c6.601,2.9,10.601,9.601,10.601,18.101c0,9.501-5.4,16.801-13.301,19.001v0.2
		c0,0,0.7,0.9,1.8,2.8l15.301,28.302H83.703z"/>
</g>
</svg>
