<?xml version="1.0" encoding="utf-8"?>
<!-- Generator: Adobe Illustrator 16.0.0, SVG Export Plug-In . SVG Version: 6.00 Build 0)  -->
<!DOCTYPE svg PUBLIC "-//W3C//DTD SVG 1.1//EN" "http://www.w3.org/Graphics/SVG/1.1/DTD/svg11.dtd">
<svg version="1.1" id="Layer_1" xmlns="http://www.w3.org/2000/svg" xmlns:xlink="http://www.w3.org/1999/xlink" x="0px" y="0px"
	 width="286.44px" height="220.339px" viewBox="0 0 286.44 220.339" enable-background="new 0 0 286.44 220.339"
	 xml:space="preserve">
<g id="I7AL7b.tif">
	<g>
		<g>
			<path fill="#FFFFFF" d="M229.561,214.846c-5.086-8.951-10.391-17.365-14.738-26.247c-3.242-6.624-2.689-6.89,3.59-10.556
				c1.437-0.84,2.859-1.704,4.266-2.592c48.176-30.404,56.557-94.653,17.758-136.101C203.639,0.042,137.723-2.17,98.285,34.581
				c-33.753,31.455-39.399,79.595-12.753,116.306c20.814,28.677,50,41.307,85.091,40.756c3.902-0.061,6.736,0.745,9.762,3.433
				C194.424,207.549,210.863,214.338,229.561,214.846z M85.992,35.312c-30.067-1.793-60.758,18.56-71.136,46.886
				c-5.023,13.711-5.458,27.673-1.098,41.642c6.079,19.475,19.033,33.173,37.931,43.211c-4.676,8.426-9.17,16.525-13.725,24.734
				c13.944-0.414,26.054-5.307,36.417-14.387c2.812-2.465,5.507-3.679,9.337-3.254c4.132,0.457,8.354,0.104,12.537,0.104
				C51.405,140.297,44.065,76.061,85.992,35.312z"/>
			<path fill-rule="evenodd" clip-rule="evenodd" fill="#FFFFFF" d="M229.561,214.846c-18.697-0.508-35.137-7.297-49.176-19.771
				c-3.025-2.688-5.859-3.493-9.762-3.433c-35.09,0.551-64.276-12.079-85.091-40.756c-26.646-36.711-21-84.852,12.753-116.306
				c39.438-36.751,105.354-34.539,142.15,4.77c38.799,41.447,30.418,105.696-17.758,136.101c-1.406,0.888-2.829,1.752-4.266,2.592
				c-6.279,3.666-6.832,3.932-3.59,10.556C219.17,197.481,224.475,205.895,229.561,214.846z"/>
			<path fill-rule="evenodd" clip-rule="evenodd" fill="#FFFFFF" d="M85.992,35.312C44.065,76.061,51.405,140.297,96.255,174.249
				c-4.183,0-8.405,0.354-12.537-0.104c-3.831-0.425-6.525,0.789-9.337,3.254c-10.362,9.08-22.472,13.973-36.417,14.387
				c4.555-8.209,9.049-16.309,13.725-24.734c-18.897-10.038-31.852-23.736-37.931-43.211c-4.36-13.969-3.925-27.931,1.098-41.642
				C25.233,53.872,55.924,33.519,85.992,35.312z"/>
		</g>
	</g>
</g>
</svg>
