<?xml version="1.0" encoding="UTF-8" standalone="no"?>
<!DOCTYPE svg PUBLIC "-//W3C//DTD SVG 1.1//EN" "http://www.w3.org/Graphics/SVG/1.1/DTD/svg11.dtd">
<svg width="100%" height="100%" viewBox="0 0 24 24" version="1.1" xmlns="http://www.w3.org/2000/svg" xmlns:xlink="http://www.w3.org/1999/xlink" xml:space="preserve" xmlns:serif="http://www.serif.com/" style="fill-rule:evenodd;clip-rule:evenodd;stroke-linejoin:round;">
    <path d="M1.5,12C1.5,10.523 1.571,9.13 1.664,7.962C1.804,6.198 3.202,4.842 4.967,4.719C6.663,4.6 8.98,4.5 12,4.5C15.02,4.5 17.337,4.6 19.033,4.719C20.798,4.842 22.196,6.199 22.336,7.962C22.429,9.131 22.5,10.522 22.5,12C22.5,13.53 22.424,14.969 22.326,16.163C22.203,17.842 20.841,19.185 19.16,19.284C17.447,19.401 15.05,19.5 12,19.5C8.95,19.5 6.553,19.401 4.84,19.284C3.159,19.185 1.797,17.842 1.674,16.163C1.56,14.778 1.502,13.389 1.5,12Z" style="fill:none;fill-rule:nonzero;stroke:white;stroke-width:1px;"/>
    <path d="M10,15L10,9L15.5,12L10,15Z" style="fill:none;fill-rule:nonzero;stroke:white;stroke-width:1px;"/>
</svg>
