<?xml version="1.0" encoding="utf-8"?>
<!-- Generator: Adobe Illustrator 16.0.0, SVG Export Plug-In . SVG Version: 6.00 Build 0)  -->
<!DOCTYPE svg PUBLIC "-//W3C//DTD SVG 1.1//EN" "http://www.w3.org/Graphics/SVG/1.1/DTD/svg11.dtd">
<svg version="1.1" id="Layer_1" xmlns="http://www.w3.org/2000/svg" xmlns:xlink="http://www.w3.org/1999/xlink" x="0px" y="0px"
	 width="24px" height="24px" viewBox="0 0 24 24" enable-background="new 0 0 24 24" xml:space="preserve">
<path fill="#FFFFFF" d="M2.846,6.887c0.03-0.295-0.083-0.586-0.303-0.784l-2.24-2.7V3h6.958l5.377,11.795L17.367,3H24v0.403
	L22.084,5.24c-0.165,0.126-0.247,0.333-0.213,0.538v13.498c-0.034,0.205,0.048,0.412,0.213,0.537l1.871,1.838v0.402h-9.412V21.65
	l1.939-1.883c0.189-0.189,0.189-0.246,0.189-0.537V8.321l-5.389,13.688h-0.728L4.28,8.321v9.174
	c-0.052,0.385,0.076,0.774,0.347,1.052l2.521,3.059v0.403H0v-0.403l2.521-3.059c0.27-0.279,0.39-0.67,0.325-1.052V6.887z"/>
</svg>
