<?xml version="1.0" encoding="utf-8"?>
<!-- Generator: Adobe Illustrator 16.0.0, SVG Export Plug-In . SVG Version: 6.00 Build 0)  -->
<!DOCTYPE svg PUBLIC "-//W3C//DTD SVG 1.1//EN" "http://www.w3.org/Graphics/SVG/1.1/DTD/svg11.dtd">
<svg version="1.1" id="Layer_1" xmlns="http://www.w3.org/2000/svg" xmlns:xlink="http://www.w3.org/1999/xlink" x="0px" y="0px"
	 width="841.889px" height="1190.551px" viewBox="0 0 841.889 1190.551" enable-background="new 0 0 841.889 1190.551"
	 xml:space="preserve">
<g>
	<g transform="translate(0.000000,511.000000) scale(0.100000,-0.100000)">
		<path fill="#FFFFFF" d="M3833.459,3159.426c-521.641-43.447-1025.84-188.33-1489.551-420.186
			c-678.144-341.982-1182.353-796.934-1602.627-1437.363c-301.396-457.9-507.148-976.591-608.603-1538.808
			c-66.592-362.266-63.643-1075.176,2.949-1425.82C413.87-3114.587,1384.651-4291.218,2726.379-4795.427
			c220.234-84.013,307.197-86.962,382.549-11.611c52.197,52.197,57.92,95.635,57.92,443.418v382.559h-368.066
			c-318.74,0-391.23,8.672-507.158,63.73c-228.906,104.307-382.558,272.354-527.441,573.828
			c-127.549,266.631-289.785,466.582-489.727,608.603c-199.951,142.031-43.447,252.148,240.527,170.986
			c124.6-37.715,194.141-81.152,318.74-211.562c86.963-89.834,205.752-226.045,260.81-304.258
			c63.73-89.834,159.375-173.848,260.82-231.855c139.082-78.213,185.469-89.834,376.748-86.973
			c118.789,2.949,266.621,23.242,327.49,43.447c101.445,37.715,115.928,60.869,173.848,231.855
			c34.775,101.445,92.783,226.045,130.41,272.431l66.68,84.023l-298.535,63.73c-536.113,113.066-840.371,269.492-1115.674,573.828
			c-283.965,310.068-443.418,793.984-443.418,1350.391c0,434.668,84.023,712.92,310.068,1020.117l98.496,136.221l-34.766,176.797
			c-60.869,315.879,23.154,875.234,139.082,918.671c121.738,46.387,614.326-133.271,944.678-344.844l136.221-86.963l269.492,52.197
			c370.928,75.352,1173.672,78.213,1544.609,2.861l263.77-55.059l255,147.842c283.975,162.314,544.795,257.949,736.064,269.482
			l130.41,8.672l55.059-144.883c72.49-185.479,98.584-596.992,49.258-791.132l-34.775-147.832l130.41-197.09
			C6797.834-167.302,6832.6-294.851,6832.6-793.327c-2.861-365.137-11.611-472.393-66.67-666.533
			c-162.314-565.068-507.158-933.145-1054.893-1133.096c-69.541-26.094-257.949-75.352-423.047-110.117l-298.535-63.73l63.73-78.213
			c34.766-46.387,89.834-150.703,121.738-231.855c57.92-136.221,63.73-220.244,72.49-904.189
			c5.811-504.297,20.283-765.108,43.438-791.123c98.584-121.738,234.717-98.584,704.238,124.6
			c565.078,263.682,1147.578,741.875,1532.998,1257.696c359.316,475.244,649.179,1147.578,756.356,1741.699
			c66.68,368.076,66.68,1022.988,0,1391.055c-168.037,930.293-686.815,1837.343-1393.915,2431.386
			C6030.119,2904.417,4934.65,3257.922,3833.459,3159.426z"/>
	</g>
</g>
</svg>
